<svg xmlns="http://www.w3.org/2000/svg" viewBox="0 0 960 600" fill="none">
  <rect width="960" height="600" rx="8" fill="#faf9f7"/>
  <!-- Sidebar -->
  <rect x="0" y="0" width="220" height="600" fill="#f5f3f0"/>
  <rect x="20" y="24" width="120" height="20" rx="4" fill="#1a1a1a" opacity="0.8"/>
  <rect x="20" y="64" width="180" height="14" rx="3" fill="#d4d0cc"/>
  <rect x="20" y="92" width="160" height="14" rx="3" fill="#d4d0cc"/>
  <rect x="20" y="120" width="140" height="14" rx="3" fill="#d4d0cc"/>
  <rect x="20" y="148" width="170" height="14" rx="3" fill="#d4d0cc"/>
  <!-- Main content -->
  <rect x="260" y="24" width="300" height="28" rx="6" fill="#f0eeeb"/>
  <!-- AI Script cards -->
  <rect x="260" y="72" width="660" height="100" rx="10" fill="#ffffff" stroke="#e8e5e0" stroke-width="1.5"/>
  <circle cx="300" cy="122" r="20" fill="#f0eeeb"/>
  <text x="300" y="127" text-anchor="middle" font-size="18" fill="#c5c0ba">💡</text>
  <rect x="340" y="92" width="320" height="16" rx="3" fill="#1a1a1a" opacity="0.15"/>
  <rect x="340" y="116" width="540" height="12" rx="3" fill="#d4d0cc"/>
  <rect x="340" y="136" width="480" height="12" rx="3" fill="#d4d0cc"/>

  <rect x="260" y="186" width="660" height="100" rx="10" fill="#ffffff" stroke="#e8e5e0" stroke-width="1.5"/>
  <circle cx="300" cy="236" r="20" fill="#f0eeeb"/>
  <text x="300" y="241" text-anchor="middle" font-size="18" fill="#c5c0ba">💡</text>
  <rect x="340" y="206" width="280" height="16" rx="3" fill="#1a1a1a" opacity="0.15"/>
  <rect x="340" y="230" width="520" height="12" rx="3" fill="#d4d0cc"/>
  <rect x="340" y="250" width="460" height="12" rx="3" fill="#d4d0cc"/>

  <rect x="260" y="300" width="660" height="100" rx="10" fill="#ffffff" stroke="#e8e5e0" stroke-width="1.5"/>
  <circle cx="300" cy="350" r="20" fill="#f0eeeb"/>
  <text x="300" y="355" text-anchor="middle" font-size="18" fill="#c5c0ba">💡</text>
  <rect x="340" y="320" width="350" height="16" rx="3" fill="#1a1a1a" opacity="0.15"/>
  <rect x="340" y="344" width="500" height="12" rx="3" fill="#d4d0cc"/>
  <rect x="340" y="364" width="440" height="12" rx="3" fill="#d4d0cc"/>

  <rect x="260" y="414" width="660" height="100" rx="10" fill="#ffffff" stroke="#e8e5e0" stroke-width="1.5"/>
  <circle cx="300" cy="464" r="20" fill="#f0eeeb"/>
  <text x="300" y="469" text-anchor="middle" font-size="18" fill="#c5c0ba">💡</text>
  <rect x="340" y="434" width="300" height="16" rx="3" fill="#1a1a1a" opacity="0.15"/>
  <rect x="340" y="458" width="480" height="12" rx="3" fill="#d4d0cc"/>
  <rect x="340" y="478" width="420" height="12" rx="3" fill="#d4d0cc"/>

  <!-- Generate button -->
  <rect x="260" y="540" width="180" height="40" rx="8" fill="#1a1a1a"/>
  <rect x="290" y="555" width="120" height="12" rx="3" fill="#ffffff" opacity="0.9"/>
</svg>
